#!OML:ASF F:\VICON\USERDATA\INSTALL\rory3\rory3.ASF
:FULLY-SPECIFIED
:DEGREES
227
root 0.927379 15.4856 -15.1127 31.4513 -1.79753 -4.49803
lowerback 25.3241 1.37316 2.34901
upperback 2.65757 2.76825 3.01277
thorax -11.2174 1.23918 1.09213
lowerneck -25.2811 -4.89518 -7.85508
upperneck 11.616 -5.33543 7.64541
head 8.10051 -2.10542 3.10302
rclavicle -4.17448e-014 -2.0276e-014
rhumerus -18.2365 2.38049 -83.4012
rradius 75.3565
rwrist -7.48133
rhand -26.9957 28.0604
rfingers 7.12502
rthumb -0.415953 -1.9189
lclavicle -4.17448e-014 -2.0276e-014
lhumerus -18.549 1.06244 86.9606
lradius 67.3257
lwrist 18.3582
lhand -20.8477 25.3329
lfingers 7.12502
lthumb 5.52139 55.241
rfemur -62.3368 8.34085 25.989
rtibia 68.2274
rfoot -26.968 -20.9276
rtoes -2.11073
lfemur -68.2261 1.2556 -16.559
ltibia 74.6143
lfoot -27.208 6.64552
ltoes -6.19931
228
root 0.91612 15.4972 -14.9902 31.2541 -1.82376 -4.6118
lowerback 25.0932 1.41062 2.26324
upperback 2.63613 2.79279 3.07202
thorax -11.1263 1.258 1.20343
lowerneck -25.6003 -4.90337 -7.88849
upperneck 11.7595 -5.34604 7.79193
head 8.20724 -2.08864 3.15631
rclavicle 5.96354e-015 0
rhumerus -18.3065 2.67928 -83.3529
rradius 75.9228
rwrist -7.36043
rhand -27.2938 27.3781
rfingers 7.12502
rthumb -0.703859 -2.60048
lclavicle 5.96354e-015 0
lhumerus -18.5328 0.870267 86.934
lradius 67.4441
lwrist 18.6107
lhand -20.9351 25.1552
lfingers 7.12502
lthumb 5.43704 55.0654
rfemur -61.3527 8.6697 26.0779
rtibia 67.8174
rfoot -27.14 -21.252
rtoes -1.3985
lfemur -68.0122 1.46389 -16.3941
ltibia 75.342
lfoot -26.6433 6.22797
ltoes -10.1129
229
root 0.897351 15.5176 -14.8563 30.8077 -1.68182 -4.76642
lowerback 25.0829 1.36357 2.22865
upperback 2.57828 2.73867 3.17295
thorax -11.1937 1.23747 1.3552
lowerneck -25.603 -4.82875 -7.79446
upperneck 11.799 -5.28002 7.79629
head 8.21357 -2.05192 3.15296
rclavicle 2.34566e-014 2.0276e-014
rhumerus -18.3804 3.04588 -83.3871
rradius 76.2075
rwrist -7.05128
rhand -27.4488 27.0116
rfingers 7.12502
rthumb -0.853552 -2.96644
lclavicle 2.34566e-014 2.0276e-014
lhumerus -18.6571 0.779022 86.8426
lradius 67.419
lwrist 18.8919
lhand -20.8732 24.6491
lfingers 7.12502
lthumb 5.49677 54.5578
rfemur -59.9439 8.90852 26.3569
rtibia 67.2921
rfoot -27.3017 -21.7716
rtoes -2.10129
lfemur -67.4859 1.62086 -16.0678
ltibia 76.0091
lfoot -26.1611 5.61938
ltoes -15.3992
230
root 0.879094 15.5595 -14.7067 29.9556 -1.3769 -4.77396
lowerback 25.4479 1.26699 2.29889
upperback 2.55434 2.6574 3.22707
thorax -11.4153 1.19591 1.39842
lowerneck -25.5852 -4.86109 -7.6941
upperneck 11.9228 -5.38148 7.87317
head 8.2617 -2.08614 3.14904
rclavicle -1.03368e-014 -7.55382e-015
rhumerus -18.7295 3.13672 -83.2954
rradius 76.5459
rwrist -6.89131
rhand -27.1183 27.6282
rfingers 7.12502
rthumb -0.534375 -2.35087
lclavicle -1.03368e-014 -7.55382e-015
lhumerus -18.7573 0.440129 86.7379
lradius 67.2597
lwrist 18.9855
lhand -20.9041 24.3125
lfingers 7.12502
lthumb 5.46694 54.222
rfemur -57.885 8.85763 26.6756
rtibia 66.6205
rfoot -27.7359 -22.2013
rtoes -2.85195
lfemur -66.3533 1.50349 -15.7064
ltibia 76.4899
lfoot -25.593 4.52261
ltoes -18.1207
231
root 0.86838 15.6031 -14.5563 29.296 -1.23423 -4.73476
lowerback 25.4848 1.24634 2.32906
upperback 2.54433 2.64214 3.22725
thorax -11.445 1.18753 1.38602
lowerneck -25.8691 -4.93549 -7.71002
upperneck 12.228 -5.51733 8.09889
head 8.4318 -2.11781 3.20971
rclavicle -1.07344e-014 -2.46493e-014
rhumerus -19.0002 3.11468 -83.112
rradius 76.9647
rwrist -6.65551
rhand -26.7165 28.1521
rfingers 7.12502
rthumb -0.14623 -1.82757
lclavicle -1.07344e-014 -2.46493e-014
lhumerus -18.7272 -0.0841173 86.6268
lradius 67.1047
lwrist 18.9839
lhand -21.0593 24.6335
lfingers 7.12502
lthumb 5.3171 54.5468
rfemur -56.0586 8.74718 26.8566
rtibia 65.8616
rfoot -28.0625 -22.432
rtoes -3.48657
lfemur -65.3261 1.39574 -15.4642
ltibia 76.8227
lfoot -25.0078 3.37747
ltoes -19.8222
232
root 0.859525 15.6429 -14.4034 28.811 -1.28819 -4.69484
lowerback 25.2032 1.30057 2.1706
upperback 2.48168 2.66557 3.26068
thorax -11.3755 1.20894 1.51043
lowerneck -26.0046 -4.98229 -7.78322
upperneck 12.4278 -5.58406 8.23712
head 8.5351 -2.13296 3.26009
rclavicle -2.70347e-014 -2.50469e-014
rhumerus -19.3721 3.34399 -82.9164
rradius 77.5237
rwrist -6.22675
rhand -26.7768 28.4702
rfingers 7.12502
rthumb -0.20454 -1.50944
lclavicle -2.70347e-014 -2.50469e-014
lhumerus -18.9062 -0.3972 86.5827
lradius 67.0069
lwrist 18.6223
lhand -20.8846 26.0316
lfingers 7.12502
lthumb 5.48581 55.9406
rfemur -54.4101 8.69028 26.9258
rtibia 65.0313
rfoot -28.3414 -22.4883
rtoes -3.51028
lfemur -64.3731 1.38093 -15.3018
ltibia 77.0019
lfoot -24.4058 2.47721
ltoes -20.9171
233
root 0.848369 15.6855 -14.2304 28.2288 -1.33002 -4.69792
lowerback 24.8847 1.3644 2.04923
upperback 2.38853 2.71414 3.30612
thorax -11.3202 1.24057 1.61915
lowerneck -26.1164 -5.12899 -7.84557
upperneck 12.7031 -5.79017 8.33871
head 8.67125 -2.2168 3.27493
rclavicle -3.06128e-014 -3.4191e-014
rhumerus -20.1817 3.61782 -82.6803
rradius 78.4708
rwrist -5.74973
rhand -26.6518 28.7556
rfingers 7.12502
rthumb -0.0837437 -1.22409
lclavicle -3.06128e-014 -3.4191e-014
lhumerus -19.2093 -0.765673 86.5298
lradius 66.7477
lwrist 17.849
lhand -21.8373 27.2076
lfingers 7.12502
lthumb 4.56588 57.1384
rfemur -52.4929 8.53452 27.1088
rtibia 64.1067
rfoot -28.5201 -22.5164
rtoes -4.10292
lfemur -63.1141 1.35049 -15.0805
ltibia 76.9459
lfoot -24.0142 1.69066
ltoes -21.0998
234
root 0.837969 15.7246 -14.0511 27.6509 -1.43186 -4.81198
lowerback 24.5107 1.48253 2.05025
upperback 2.24833 2.86059 3.30235
thorax -11.2815 1.30991 1.57056
lowerneck -26.1433 -5.34271 -7.93342
upperneck 13.0456 -6.11524 8.56371
head 8.83432 -2.34492 3.31901
rclavicle -1.47101e-014 -2.54444e-014
rhumerus -21.1346 3.67597 -82.508
rradius 79.4917
rwrist -5.33646
rhand -25.8277 28.4221
rfingers 7.12502
rthumb 0.712186 -1.55642
lclavicle -1.47101e-014 -2.54444e-014
lhumerus -19.6321 -1.3911 86.4078
lradius 66.4049
lwrist 16.9284
lhand -23.2085 25.1059
lfingers 7.12502
lthumb 3.24176 55.061
rfemur -50.5011 8.37609 27.3932
rtibia 63.0752
rfoot -28.5492 -22.5587
rtoes -6.27179
lfemur -61.6925 1.41727 -14.8049
ltibia 76.6809
lfoot -23.8706 1.03629
ltoes -21.1602
235
root 0.832695 15.7698 -13.8685 27.0711 -1.43211 -4.73046
lowerback 24.0735 1.52623 1.97936
upperback 2.03971 2.89403 3.30059
thorax -11.2872 1.33129 1.60517
lowerneck -25.8602 -5.50919 -8.1866
upperneck 13.2766 -6.36345 8.92638
head 8.91446 -2.43885 3.45141
rclavicle -8.34896e-015 -4.37326e-015
rhumerus -22.1587 3.84412 -82.292
rradius 80.4854
rwrist -4.32324
rhand -25.4791 28.6194
rfingers 7.12502
rthumb 1.04883 -1.35776
lclavicle -8.34896e-015 -4.37326e-015
lhumerus -20.417 -2.03129 86.301
lradius 66.3126
lwrist 16.2822
lhand -22.1263 21.4393
lfingers 7.12502
lthumb 4.28679 51.3759
rfemur -48.4478 7.85853 27.5368
rtibia 61.8789
rfoot -28.5495 -22.4856
rtoes -8.75825
lfemur -59.9666 1.27289 -14.7108
ltibia 76.1214
lfoot -23.9276 0.402318
ltoes -20.9181
236
root 0.830214 15.8324 -13.6642 26.3484 -1.3479 -4.68911
lowerback 23.5597 1.52468 2.04784
upperback 1.91637 2.9026 3.33885
thorax -11.1475 1.33664 1.61451
lowerneck -25.9153 -5.67797 -8.39957
upperneck 13.723 -6.59917 9.18602
head 9.11922 -2.52522 3.5431
rclavicle -8.74653e-015 -3.37934e-014
rhumerus -23.5791 4.02259 -81.9627
rradius 81.9723
rwrist -2.50184
rhand -25.7273 28.5749
rfingers 7.12502
rthumb 0.80916 -1.40335
lclavicle -8.74653e-015 -3.37934e-014
lhumerus -21.2379 -2.84303 86.2122
lradius 66.3054
lwrist 15.9986
lhand -21.0362 21.9061
lfingers 7.12502
lthumb 5.33936 51.8188
rfemur -46.0204 7.1652 27.7843
rtibia 60.4317
rfoot -28.728 -22.1172
rtoes -9.41282
lfemur -57.6741 1.04066 -14.5516
ltibia 75.2073
lfoot -24.0355 -0.219271
ltoes -20.1823
